/* XPM */
static char *da9d4e097c194dfeddf50f91a1acc3aeCMHGDsDQdP6EqYqL[] = {
/* columns rows colors chars-per-pixel */
"64 82 146 2 ",
"   c None",
".  c #011B35",
"X  c #011E3C",
"o  c #01203F",
"O  c #012344",
"+  c #01254A",
"@  c #01284E",
"#  c #012A53",
"$  c #012E5A",
"%  c #01305E",
"&  c #013364",
"*  c #01366B",
"=  c #01386E",
"-  c #013B75",
";  c #013D79",
":  c #26425F",
">  c #01407E",
",  c #014282",
"<  c #01478A",
"1  c #02498D",
"2  c #154B81",
"3  c #12518E",
"4  c #024C93",
"5  c #014F9A",
"6  c #01519E",
"7  c #0B549A",
"8  c #0055A6",
"9  c #0C5BA5",
"0  c #0257A8",
"q  c #055AAB",
"w  c #095DAE",
"e  c #115CA5",
"r  c #0A5FB0",
"t  c #1764AE",
"y  c #0D62B3",
"u  c #0E66BA",
"i  c #1065B6",
"p  c #1F6BB5",
"a  c #1267B8",
"s  c #156ABB",
"d  c #196DBE",
"f  c #2769A8",
"g  c #2772BB",
"h  c #176DC0",
"j  c #1A6FC0",
"k  c #1D72C3",
"l  c #1E73C9",
"z  c #2075C6",
"x  c #2E7CC6",
"c  c #2277C8",
"v  c #257ACB",
"b  c #297ECF",
"n  c #307DC5",
"m  c #2A7FD0",
"M  c #3980C3",
"N  c #2D82D3",
"B  c #3186D7",
"V  c #3287D8",
"C  c #358ADB",
"Z  c #398DDE",
"A  c #328BE0",
"S  c #3A8FE0",
"D  c #3D92E3",
"F  c #428BD1",
"G  c #4392DE",
"H  c #5594D4",
"J  c #4094E5",
"K  c #4095E6",
"L  c #4196E7",
"P  c #4196E7",
"I  c #4899E6",
"U  c #4297E8",
"Y  c #4297E8",
"T  c #4398E9",
"R  c #4299E9",
"E  c #4499EA",
"W  c #459AEB",
"Q  c #469BEB",
"!  c #469BEC",
"~  c #479CED",
"^  c #469CEC",
"/  c #459AEB",
"(  c #489DEE",
")  c #499EEE",
"_  c #499EEF",
"`  c #499EEF",
"'  c #5299E2",
"]  c #579EE1",
"[  c #499FF1",
"{  c #4A9FF0",
"}  c #4B9FF0",
"|  c #4A9FF0",
" . c #4EA0EF",
".. c #55A1EA",
"X. c #56A3EC",
"o. c #4BA0F1",
"O. c #4CA0F1",
"+. c #4CA1F2",
"@. c #4DA2F3",
"#. c #4EA3F4",
"$. c #4DA2F3",
"%. c #52A4F3",
"&. c #50A5F6",
"*. c #50A5F7",
"=. c #51A6F7",
"-. c #50A5F6",
";. c #5AAAF6",
":. c #52A7F8",
">. c #53A7F8",
",. c #51A6F8",
"<. c #52A7F8",
"1. c #53A8F9",
"2. c #52A8F9",
"3. c #54A9FA",
"4. c #55AAFB",
"5. c #55AAFB",
"6. c #58ABFB",
"7. c #5BAAF8",
"8. c #59ADFE",
"9. c #5AADFE",
"0. c #5EB0FF",
"q. c #62A7EF",
"w. c #63A9EB",
"e. c #64ADF4",
"r. c #6DB3F6",
"t. c #64B2FE",
"y. c #6BB5FC",
"u. c #77B7F5",
"i. c #72B6F8",
"p. c #76B8FB",
"a. c #7CBCF8",
"s. c #79BDFE",
"d. c #84B0E3",
"f. c #80BFFE",
"g. c #87C5FF",
"h. c #8AC4FA",
"j. c #9EC8F4",
"k. c #90C7FE",
"l. c #92CAFF",
"z. c #94CAFF",
"x. c #9BCDFE",
"c. c #BBD0EC",
"v. c #A3D2FF",
"b. c #A8D4FD",
"n. c #B5DAFF",
"m. c #BADDFF",
/* pixels */
"                                                                                                                                ",
"                                          Y , 8 0 0 0 0 0 q q w w y i y a s i.                                                  ",
"                                  n > ; , , > < 8 8 8 8 8 8 q q q y y y a d d k k k G                                           ",
"                            p = = ; ; ; , , , < 8 8 8 8 8 0 0 q w r r y a s s j k k c v b V                                     ",
"                        $ * & & * = = , , , , < 8 8 8 8 0 0 0 q q y y i a s j k k z c v c N N Z                                 ",
"                    # + # $ & & ; g v v c k j j s w 8 8 8 8 0 q w r y y a s s j k k v v v N N V V V ..                          ",
"                . O O @ w Z C N V m b c z k j s i i r w q 8 0 q q y y i a s s k k k c v b N N V V C Z Z %.                      ",
"              O O 7 Q L D Z Z V N N v c z j s s i r w q 0 0 8 8 8 w y a a s s k k k c v v N N V V Z Z D D L l.                  ",
"          X X } ) Q T J D Z V B N m v z z j s a y y q q 0 8 8 8 8 < < w s s d d z k c v b N N V V C Z D D L J [                 ",
"        + 8.} ) ~ ~ Y J Z C V N m m v k j h s i y r w 0 0 8 8 8 8 4 , ; - a s d k z c v b N N V V C Z S J D L W W 7.            ",
"    a.) =.=.$.[ ~ Q L S Z V B N N v z k j j s i y r q 0 8 8 8 8 8 8 < > ; = - k d k c v b N N V V C Z D D Y W W [ [ $.          ",
"  R =.=.[ $.} [ ) Y D S Z V B N m v z k j s a y r r 0 8 8 8 8 4 < < , > > - * * w z c b b N N N V C Z D D Y W W ) Q ) #.        ",
"  7 ) o.} ) [ ~ Q L D Z C V N m v v z k s s a y r q q 8 8 8 8 < > > - - > - = = @ @ c v b N N V V C S D D D W ) ) [ $.) $.$.    ",
"  + ) ) [ ) ~ ~ Q J D Z V V N b v z k j s a i y w q 0 8 8 8 8 8 < > > = - = & & @ o o N b N N V V S Z D L D W W ) ) $.[ $.1.1.  ",
"  # t ~ ~ W ) W Y D D C V B N b v z k j s a a r q 0 8 8 8 8 8 4 < < > = & % % # O o X . k N N V V C Z D D Y Q W [ [ o.#.o.1.1.  ",
"  + # ~ ~ ~ W W J D S V B B b v v z j s s a r r r 0 0 8 q n H ' H   d e * # % # O o . o o > N N V C Z S J D Q ) ) Q ) ) o.=.1.  ",
"  + @ i ) ) Q Q D Z Z V N N b v c k k s i i y w w l                             % . . o X X * V V C S D D Y Q W [ ) Q ) $.:.:.  ",
"d + @ $ $.) W L D D C V N N b v c k s s a a y                                         X X X X $ C S Z D D L Y Y ~ W [ } 1.=.1.  ",
": O @ # $ Q L L D Z C N N v v c k k s s y y                                               O X X @ V Z S L L Y Q W ~ ~ #.=.:.8.  ",
"$ O @ # # 9 L S D Z V V N v v v k d s a k                                                     . X * N D D D L R W W [ } =.1.1.  ",
"O O @ # # # V D Z C V N N v v k k j s y                                                         X O > S D D L L ) Q [ o.=.#.1.  ",
"O + + @ @ $ $ S Z V V N N v c k k s s                                                             F O s D L D Y Q Q [ #.=.=.1.  ",
"O O O # # $ $ & N V N b v c c k j s                                                                   $ S D D Y Q W ~ o.=.=.1.  ",
"O O O @ # $ & & & 1 V N v c k k s s                                                                     + L Y W [ } o.#.#.=.:.  ",
"X O O @ # $ & & & & - b v c k d s i                                                                       X L Q ) [ $.#.=.=.:.  ",
"X O + @ # # & & & * - - , c k d s a                                                                         @ Q ) [ } #.#.=.:.  ",
"X O O @ # # & & & * = - - > < s k s y                                                                         4 ) } $.$.=.=.:.  ",
"X O O @ # # & & & * - - > , > < 8 0 y w                                                                         :.} $.$.=.:.1.  ",
"O o O @ @ # & & & * - - > > , , < 4 8 8 8 8 b.                                                                    ) o.$.=.=.:.  ",
". O O @ $ $ % & & * - - > > > < 4 4 8 8 8 8 8 q q w u                                                               ) $.=.=.:.  ",
"* O O @ # $ $ & & * - - > > > < 8 8 8 8 8 8 8 8 q q w w a y i s k s v                                               k.#.#.=.=.  ",
"  O O @ # $ $ & & * * - - > > < 8 8 8 8 8 8 8 8 q q w y y i s a s k k k z z b b N V N A y.                            R $.=.=.  ",
"  X O @ @ $ $ & & = = - ; , ; < 8 8 8 8 8 8 8 0 0 q w r y i s s d k k k z c m b N N N C Z D D Z L ;.                    #.=.=.  ",
"  & O @ # $ $ & & & = - ; ; , < 8 8 8 8 8 8 0 0 0 0 w r y a a s s k k z z z N v N N V C Z S Z D L L L Q =.                =.=.n.",
"    O @ @ $ $ & & = = - - ; , < 8 8 8 8 8 0 8 8 8 0 q r y a a s d k k k k v b v b N C C Z Z D D Y Y Q R ) ) [             o.#.v.",
"    2 @ # $ $ & & = = - ; , , < 8 8 8 8 8 8 8 8 0 0 q w y i a s s k j k z v m m N V V C C Z D D L Q W W [ ) [ #.$.          =.z.",
"      # # $ $ & & = = - ; > , < 8 8 8 8 8 8 8 0 0 q q r y i a s s k k z z v v N N N V C V Z D D D R W W [ [ $.#.#.$.        z.g.",
"        # $ $ & & = = - ; > , < 4 8 8 8 8 8 8 0 q q w q r y a s d j k k z b m N N N N V C Z Z D J T W W ) [ #.#.#.#.=.m.      f.",
"          $ $ & & = = - - , > < < 8 8 8 8 0 0 0 0 q q w r y a s s k k k c b b N N N N V C Z D D D R W ) ) [ $.#.=.=.=.4.        ",
"          w.$ & & = = - ; , > < < 8 8 8 8 8 8 0 0 q w r y y y a s j k k z v v b N N V V C Z D D L Y W W } ) $.%.#.=.:.:.#.      ",
"            f & & - = - - , , < < 5 8 8 8 8 8 0 q q r r r y i a s s k k v v N b N N N V Z Z Z D D Y Q ) ~ o.#.#.=.=.1.1.6.y.    ",
"  d.            & = = - ; , , < < 5 8 8 8 8 8 0 q q w r y y a a s k k k c v b b m N N C C Z S D D R Q [ / o.#.#.=.#.1.1.6.8.    ",
"  8.              - = - - , , < < 5 8 8 8 8 8 0 q q w r y i a s s j k k z c b b N N V V C Z S D L R R ~ ~ ~ #.#.=.=.:.1.6.6.    ",
"  1.                  4 > , , < < 5 8 8 0 8 8 0 q q w r y y a a s d j k z c b m N N N V C Z S D J R / ~ / o.#.#.#.=.:.1.6.8.    ",
"  1.>.                      9 4 5 8 0 8 8 0 0 0 q q r r y y a a s j k k z z b b b N N V Z Z Z D D Q W W ~ ~ #.#.#.,.2.5.6.8.    ",
"  q.8.                                p.x r 8 0 q w r q y y a s s k k z z c b b N N V V C Z Z D L Y W [ ~ ~ $.#.,.#.,.5.8.8.    ",
"  1.8.=.                                                             .s c v v b N N N V C Z Z D J T W ) ~ o.#.#.#.1.,.5.6.1.    ",
"  t.1.1.c.                                                                    s N N N V C Z D D Y Y W ~ ~ o.#.#.,.#.2.8.6.6.    ",
"  j.8.6.3.                                                                        , 4 V C Z D D D Y W W ~ [ $.%.#.:.1.4.4.+.    ",
"    0.6.1.#.                                                                      w.- - = N Z D Y Y W W [ ) $.#.#.:.1.4.8.m.    ",
"    6.8.1.2.e.                                                                      - * & & # p Y Y W ) [ ) #.#.#.:.:.:.4.      ",
"    0.0.8.8.2.                                                                      ; = & % $ $ # D W W ) [ +.#.#.:.:.4.8.      ",
"    r.0.6.8.2.$.                                                                    ; ; = & $ $ @ @ ; [ W [ +.#.#.:.4.4.        ",
"      0.8.8.1.*.#.                                                                  - ; = = & $ # @ O O } [ +.#.#.:.:.:.        ",
"      y.0.8.8.2.=.$.                                                              < , - ; = & $ $ O O o X ~ %.#.[ =.:.#.        ",
"      x.0.6.2.2.=.#.o.y.                                                        e., , ; ; ; & $ # @ + X X X [ #.$.=.$.          ",
"        t.6.8.4.=.1.$.$.D                                                       8 < > > ; ; = $ @ @ @ + O X 3 $.$.:.1.          ",
"        t.t.6.4.1.=.#.#.o.[                                                   8 6 1 , , ; > - $ $ # @ O O X o $.$.[             ",
"          0.0.6.1.1.1.#.$.) ~ 7.                                            q 8 6 4 < , > > - & $ $ # @ O o . #.=.)             ",
"          s.0.8.1.1.=.#.$.$.~ ) ~                                         0 8 8 8 6 1 , , ; - = & $ $ @ @ O X [ =.              ",
"            8.8.4.1.:.%.$.) [ ) Q D S                                   y 8 8 8 8 6 1 , , ; - = * $ $ # @ O X $.0.              ",
"              9.4.:.=.$.$.$.[ ) Q Y D Y L                             q q q 8 8 8 6 6 < , , - - * & $ $ @ @ X $.                ",
"              y.6.4.=.=.=.$.$.) ) Q L L D C Q                       y r q 0 8 8 8 8 6 < < , ; - - & % $ # @ #                   ",
"                6.4.1.:.=.=.$.) [ W Y D S D C V v                 s y y r q 0 0 8 8 8 4 < , , ; - * & $ $ # h.                  ",
"                  0.1.1.1.#.#.$.) Q Q D D S Z V V N m           s a a y w q q 0 8 8 8 8 < , , ; ; = & $ $ -                     ",
"                    6.#.1.=.#.$.[ ) Q Y D S S C V N m v v j Q z j s a y y w 0 0 0 8 8 6 4 < , > ; = = & $                       ",
"                      1.1.1.=.#.$.~ W Y Y S S Z V V m m v z z j d s s y y w q q 8 8 8 8 5 < , , ; = = &                         ",
"                        8.1.#.=.$.$.W Q Q D S S C V N m v v z z k s s a y r w q 8 8 8 8 8 4 < , , - -                           ",
"                          #.2.#.#.$.[ W R L D S Z V V N m v z z d a s a y y r q q 8 8 8 8 4 < , , ;                             ",
"                            #.1.#.$.o.W Q Q D S Z V V N N v c d d a s s i y y q q 8 0 8 8 6 < < ,                               ",
"                              #.=.#.#.) W Y D D Z Z V N m N z k d s s s a y r r q 8 0 8 8 8 5 ,                                 ",
"                                W #.o.[ W Q Y J Z Z V V N m v z k k s d a i y y w 0 8 8 8 8 s                                   ",
"                                    ) $.[ W Q Y D Z C V N m b c z k d d s i y r w q q 0 8                                       ",
"                                      [ ) Q Q Y D S Z C V N b v c k k k s s i y r q q q                                         ",
"                                        [ } Y Y D S Z C V N N b v z k k d s i y y w v                                           ",
"                                            W W L D S Z C B m b v v z k j d s a y                                               ",
"                                              ~ L J Z Z C V N m v v z k k d i N                                                 ",
"                                                  Z D Z Z V B N m v c k s d                                                     ",
"                                                    ) D Z C B m N v z N                                                         ",
"                                                        S C V B N N X.                                                          ",
"                                                          p.N V C                                                               ",
"                                                                                                                                "
};
