/* XPM */
static char *_cd401bcceeb478ddacb5997ba5c8a3biGzunpK9VjYCP4Fy[] = {
/* columns rows colors chars-per-pixel */
"16 20 109 2 ",
"   c None",
".  c #011E3B",
"X  c #011F3D",
"o  c #01203E",
"O  c #012344",
"+  c #012345",
"@  c #012447",
"#  c #012548",
"$  c #01284E",
"%  c #012950",
"&  c #002A53",
"*  c #012E5A",
"=  c #01305E",
"-  c #013363",
";  c #013364",
":  c #01376E",
">  c #01386E",
",  c #01386F",
"<  c #013D78",
"1  c #004280",
"2  c #014280",
"3  c #014281",
"4  c #014483",
"5  c #014485",
"6  c #01478B",
"7  c #014A91",
"8  c #004A95",
"9  c #00519E",
"0  c #0154A3",
"q  c #0053A5",
"w  c #0054A6",
"e  c #0055A6",
"r  c #0156A7",
"t  c #0257A8",
"y  c #0358A9",
"u  c #0458A9",
"i  c #0459AA",
"p  c #075CAD",
"a  c #0A5FB0",
"s  c #0A60B1",
"d  c #0B60B1",
"f  c #0D62B3",
"g  c #0E63B4",
"h  c #0F64B5",
"j  c #1065B6",
"k  c #1066B7",
"l  c #1166B7",
"z  c #1469BA",
"x  c #156ABB",
"c  c #176CBD",
"v  c #176CBE",
"b  c #186DBE",
"n  c #196EBF",
"m  c #1B70C1",
"M  c #1C71C2",
"N  c #1D72C3",
"B  c #1E73C4",
"V  c #2176C7",
"C  c #2277C8",
"Z  c #2479CA",
"A  c #267BCC",
"S  c #287DCE",
"D  c #2A7FD0",
"F  c #2C81D2",
"G  c #2D82D3",
"H  c #2E83D4",
"J  c #2F84D5",
"K  c #3085D6",
"L  c #3287D8",
"P  c #3388D9",
"I  c #368BDC",
"U  c #378CDD",
"Y  c #3E8EDB",
"T  c #3A8FE0",
"R  c #3C91E2",
"E  c #3D92E3",
"W  c #3E93E3",
"Q  c #4A8ECF",
"!  c #4095E6",
"~  c #4196E7",
"^  c #4297E8",
"/  c #4398E9",
"(  c #4499EA",
")  c #459AEB",
"_  c #469BEC",
"`  c #489DEE",
"'  c #499EEF",
"]  c #4A9FF0",
"[  c #4BA0F1",
"{  c #4BA0F2",
"}  c #4CA1F2",
"|  c #4DA2F3",
" . c #4FA4F5",
".. c #4DA4F6",
"X. c #50A5F6",
"o. c #51A6F7",
"O. c #5AA6F2",
"+. c #52A7F8",
"@. c #53A7F8",
"#. c #53A8F9",
"$. c #54A9FA",
"%. c #55AAFB",
"&. c #56ABFC",
"*. c #57ACFD",
"=. c #58ADFD",
"-. c #59AEFF",
";. c #7DBCF9",
":. c #80BBF6",
">. c #90C8FF",
/* pixels */
"          5 e i d x             ",
"    % v S N g e d n V H I       ",
"  | ( L Z z p e 7 > C G I ^ '   ",
"$ _ E H N k t e 1 - X G I ( ] =.",
"# ! I S m ;.          . I ^ ' %.",
"@ * H C z                 W ' +.",
"@ * > 1 k                   ] +.",
"O * : 1 q e p k N :.          +.",
"Q * , 1 e e u k m A L T ^ |   +.",
"  * , 1 e e p g m S K T ^ | +.  ",
"O.    1 9 e p k N A J T ! | o.=.",
"-.                Y J T ^ | o.>.",
"  $.                ..* ( | +.  ",
"  =.o.              5 : O | +.  ",
"  %.$.'           e 6 < * O     ",
"    %.| _ U     h y 0 1 - %     ",
"       .] E J B v p e 6 <       ",
"        [ / U D n h i 8         ",
"            E J C z             ",
"              P                 "
};
