/* XPM */
static char *_779947437e54e0eb02e11b3a8c60adfOIJd8YgEz0vfwUPb[] = {
/* columns rows colors chars-per-pixel */
"32 41 247 2 ",
"   c None",
".  c #011E3B",
"X  c #011F3D",
"o  c #01203E",
"O  c #012141",
"+  c #012241",
"@  c #012343",
"#  c #012344",
"$  c #012345",
"%  c #012445",
"&  c #012447",
"*  c #002449",
"=  c #012549",
"-  c #01254A",
";  c #01264A",
":  c #01264B",
">  c #01284E",
",  c #00284F",
"<  c #01294F",
"1  c #012951",
"2  c #002952",
"3  c #012A52",
"4  c #012A53",
"5  c #012C56",
"6  c #012D58",
"7  c #012D59",
"8  c #012E59",
"9  c #012E5A",
"0  c #012E5B",
"q  c #012F5E",
"w  c #00305F",
"e  c #013262",
"r  c #013263",
"t  c #013363",
"y  c #013264",
"u  c #003364",
"i  c #013364",
"p  c #013365",
"a  c #013465",
"s  c #013466",
"d  c #013568",
"f  c #013569",
"g  c #01376B",
"h  c #01376D",
"j  c #01376E",
"k  c #01386D",
"l  c #01386E",
"z  c #01386F",
"x  c #013972",
"c  c #013A73",
"v  c #013A74",
"b  c #003B77",
"n  c #013B77",
"m  c #003C76",
"M  c #013C76",
"N  c #013C77",
"B  c #013D77",
"V  c #013C78",
"C  c #013D78",
"Z  c #013E79",
"A  c #003F7B",
"S  c #013F7B",
"D  c #013F7C",
"F  c #013F7D",
"G  c #01407F",
"H  c #014180",
"J  c #014280",
"K  c #004281",
"L  c #014281",
"P  c #014282",
"I  c #014384",
"U  c #014484",
"Y  c #014485",
"T  c #014585",
"R  c #014587",
"E  c #014588",
"W  c #014589",
"Q  c #01458A",
"!  c #01468A",
"~  c #01478B",
"^  c #07498B",
"/  c #054B8E",
"(  c #004890",
")  c #014C95",
"_  c #014D95",
"`  c #014C96",
"'  c #014D96",
"]  c #064F95",
"[  c #065097",
"{  c #01509B",
"}  c #00509C",
"|  c #01519E",
" . c #01529E",
".. c #0151A0",
"X. c #0053A1",
"o. c #0052A2",
"O. c #0053A3",
"+. c #0154A2",
"@. c #0053A5",
"#. c #0055A4",
"$. c #0054A5",
"%. c #0055A5",
"&. c #0054A6",
"*. c #0055A6",
"=. c #0055A7",
"-. c #0155A7",
";. c #0156A7",
":. c #0D58A0",
">. c #0F5AA1",
",. c #0257A8",
"<. c #0358A9",
"1. c #0459AA",
"2. c #055AAB",
"3. c #065BAC",
"4. c #075CAD",
"5. c #085CAE",
"6. c #085DAE",
"7. c #095EAF",
"8. c #095FB0",
"9. c #0A5FB0",
"0. c #0A60B0",
"q. c #0B60B1",
"w. c #0A60B3",
"e. c #0C61B2",
"r. c #0D62B3",
"t. c #0E62B4",
"y. c #0E63B4",
"u. c #0F64B5",
"i. c #1065B6",
"p. c #1166B7",
"a. c #1267B8",
"s. c #1368B9",
"d. c #1469BA",
"f. c #146ABB",
"g. c #156ABB",
"h. c #136BBF",
"j. c #166BBC",
"k. c #166CBC",
"l. c #176CBD",
"z. c #186CBD",
"x. c #186DBE",
"c. c #196EBF",
"v. c #2873BB",
"b. c #1A6FC0",
"n. c #1B70C0",
"m. c #1B70C1",
"M. c #1C70C1",
"N. c #1C71C2",
"B. c #1D72C3",
"V. c #1E73C4",
"C. c #1F74C5",
"Z. c #2172C0",
"A. c #2075C6",
"S. c #2176C7",
"D. c #2F7CC3",
"F. c #2879C7",
"G. c #2277C8",
"H. c #2378C8",
"J. c #2378C9",
"K. c #2479CA",
"L. c #257ACB",
"P. c #267BCC",
"I. c #277CCD",
"U. c #287DCE",
"Y. c #297ECF",
"T. c #277FD3",
"R. c #2A7FD0",
"E. c #2B80D1",
"W. c #2C81D2",
"Q. c #2D82D3",
"!. c #2E83D4",
"~. c #2F84D5",
"^. c #2F85D6",
"/. c #3085D6",
"(. c #3186D7",
"). c #3C8AD5",
"_. c #3287D8",
"`. c #3388D9",
"'. c #3489DA",
"]. c #358ADB",
"[. c #368BDC",
"{. c #378CDD",
"}. c #388DDE",
"|. c #398EDF",
" X c #3A8FDF",
".X c #3A8FE0",
"XX c #3B8FE0",
"oX c #3B90E1",
"OX c #3C91E2",
"+X c #3D92E3",
"@X c #3E93E4",
"#X c #3F94E5",
"$X c #4D94DA",
"%X c #4095E6",
"&X c #4196E7",
"*X c #4297E8",
"=X c #4398E9",
"-X c #4499EA",
";X c #459AEB",
":X c #459BEB",
">X c #469BEB",
",X c #469BEC",
"<X c #479CED",
"1X c #489DEE",
"2X c #499EEF",
"3X c #4A9FF0",
"4X c #4B9FF0",
"5X c #57A4EE",
"6X c #4BA0F1",
"7X c #4CA0F2",
"8X c #4CA1F2",
"9X c #4DA2F3",
"0X c #4EA3F4",
"qX c #4FA4F5",
"wX c #4FA5F5",
"eX c #56A3F0",
"rX c #57A5F0",
"tX c #50A5F6",
"yX c #51A6F7",
"uX c #55A7F6",
"iX c #50A6F9",
"pX c #52A7F8",
"aX c #53A8F9",
"sX c #53A9FA",
"dX c #53A9FB",
"fX c #57A9F8",
"gX c #54A9FA",
"hX c #55AAFB",
"jX c #56ABFC",
"kX c #56ACFD",
"lX c #57ACFD",
"zX c #57ADFE",
"xX c #58ADFE",
"cX c #5AAEFF",
"vX c #5BAEFF",
"bX c #5FAFFF",
"nX c #5EB0FF",
"mX c #60B0FE",
"MX c #61B1FF",
"NX c #83C2FD",
"BX c #98C3F2",
"VX c #92C5F9",
"CX c #92C9FD",
"ZX c #94CAFD",
"AX c #96CBFE",
"SX c #A8CBF1",
"DX c #CFE8FF",
/* pixels */
"                        ).=.+.2.7.5X                            ",
"                k G L ~ =.=.=.=.7.y.d.x.V.K.                    ",
"          D.7 i a C G _ =.=.+.2.7.y.s.x.S.G.U.^.(.              ",
"        # h.OX'.Q.K.V.z.i.4.2.=.7.u.s.b.V.K.R.!.'.}.*X          ",
"    3 0X1X%X.X(.E.H.c.d.y.2.=.=.{ L s.k.C.P.E.(.'..X%X-X        ",
"  aX0X8X,X@X'.(.U.S.x.s.0.,.=.+.{ L C a N.K.R.^.[.}.@X,X1X7X    ",
"F.3X1X3X*XoX'.Q.K.B.k.i.2.=.=.+.L C C k * P.R.(.'.}.#X,X1X8XqX  ",
"* ,X<X,X@X{.(.U.H.c.a.e.1.=.=.[ ^ x 7 > o # :.^.[.}.#X,X3X8X8X  ",
"o 5 1X-X@X'.!.P.V.j.i.9.                  X + > '.}.#X,X,X3X0X  ",
"& > w OX}._.Q.G.b.j.w.                        . 3 .X#X=X,X3XpX  ",
"& > 7  X[.!.U.S.x.i.                            C [ @X#X<X7XtXbX",
"+ * 5 a Z.(.K.V.x.                                  @X-X<X7XtXrX",
"@ * 3 i i v G.b.d.                                    =X1X8XtXhX",
"o : 3 t i N L L k.d.                                    1X8XaXaX",
"o & 3 a i C L L o.=.=.=.DX                                7XaXaX",
"@ & 7 t i h v ! =.=.=.+.2.q.u.d.x.B.K.T.                  uXpXaX",
"  * 7 t i k N ! =.+.+.=.<.q.u.d.b.B.K.U.Q.'.}.@X-X0X        8XgX",
"  > 7 i i k N ! =.=.=.=.=.4.u.d.x.V.K.U.!._.}.@X*X-X3X4X      gX",
"    7 0 f h C T +.=.=.=.2.4.y.s.x.B.G.U.^.(.[.@X%X-X3X0XtX    pX",
"    v.t h k C L _ =.=.=.2.7.y.i.x.B.K.U.Q.(.[.@X%X,X3X0XtXgX    ",
"rX    $Xk k C L _ +.=.=.<.7.q.i.k.V.P.U.!._.[.OX%X-X7X8XtXgXxX  ",
"fX        C G L  .=.=.=.2.7.y.s.j.B.G.R.Q._.'.@X%X-X3X0XtXgXzX  ",
"SXBX            >.=.=.,.2.9.u.d.x.B.G.U.Q._.'.OX%X,X3X8XtXgXxX  ",
"  gX                                  U.E._.[.OX%X-X3X0XtXgXxX  ",
"  xXaX                                    a }.OX%X,X1X8XtXgXzX  ",
"  xXjXVX                                  k i 7 OX-X7X0XtXgXAX  ",
"  MXjXqX                                  C k w > * 1X8XtXaX    ",
"    bXjXtXAX                            ( C N a > # + 8XtXgX    ",
"    MXzXtXtX-X                          _ L C f 3 * o pXtX      ",
"      zXaXtX8X%X                      =. .U L k t > & & qX      ",
"      nXjXtXqX3X-X%X                2.=.=.~ G N t 7 > *         ",
"        zXpXtX8X-X%X}.^.          y.2.=.=. .U G x w >           ",
"          pXpX0X1X-XOX'.(.K.  CXj.i.7.,.=.+.T G N t t           ",
"            pXqX7X,X#X X(.E.K.C.x.d.9.2.=.=._ U N G             ",
"              tX8X<X=XOX{.Q.I.S.d.d.y.7.=.=. .T T               ",
"                7X3X-X#X}.(.Q.C.x.d.i.9.2.=.=./                 ",
"                  0X-X=XoX'.Q.I.S.x.d.y.4.<.                    ",
"                    NX=X%X{.(.E.K.B.x.i.9.                      ",
"                        @XoX'.Q.I.C.x.                          ",
"                            {.(.U.K.                            ",
"                              (.                                "
};
